:version 1.10
:name ASF
:units
  mass 1
  length 1
  angle deg
:documentation
  ASF file generated by Kaydara
:root
  axis xyz
  order  tx ty tz rx ry rz
  position 0 0 0
  orientation 0 0 0
:bonedata
  begin
    id 1
    name RightUpLegDummy
    direction -1 2.30186e-007 8.31532e-007
    length 4.04083
    axis 0 0 0 xyz
  end
  begin
    id 2
    name RightUpLeg
    direction -0.000919234 -0.999985 0.00544864
    length 17.4221
    axis -3.80308 -0.00076134 -0.0523649 xyz
    dof rx ry rz
  end
  begin
    id 3
    name RightLeg
    direction -0.000919271 -0.999984 -0.00555045
    length 17.1239
    axis 4.00314 0.0181274 -0.183583 xyz
    dof rx ry rz
  end
  begin
    id 4
    name RightFoot
    direction -2.57843e-005 -4.04509e-007 1
    length 6.72091
    axis 8.18909e-005 -0.122003 -0.403008 xyz
    dof rx ry rz
  end
  begin
    id 5
    name RightToes
    direction 0.00116825 -0.014069 0.9999
    length 3.85082
    axis 0.000514414 0.540638 -0.356797 xyz
    dof rx ry rz
  end
  begin
    id 6
    name SpineDummy
    direction 0.0168869 0.966876 -0.254689
    length 6.99894
    axis 0 0 0 xyz
  end
  begin
    id 7
    name Spine
    direction -0.0132008 0.999903 0.00446247
    length 11.1999
    axis -0.00148109 0.00725429 0.756411 xyz
    dof rx ry rz
  end
  begin
    id 8
    name Spine1
    direction 0 0 0
    length 0
    axis -0.000934958 0.0245693 1.46543 xyz
    dof rx ry rz
  end
  begin
    id 9
    name HEadDummy
    direction -0.0255732 0.999672 0.00128215
    length 3.43865
    axis -0.000934958 0.0245693 1.46543 xyz
  end
  begin
    id 10
    name HEad
    direction -0.0472656 0.980052 0.19304
    length 5.12695
    axis -0.000934954 0.0245693 1.46543 xyz
    dof rx ry rz
  end
  begin
    id 11
    name LeftShoulder1Dummy
    direction 0.953098 0.301717 -0.023914
    length 3.68488
    axis -0.000934958 0.0245693 1.46543 xyz
  end
  begin
    id 12
    name LeftShoulder1
    direction 0.962466 0.271167 0.0112566
    length 3.13809
    axis -0.000934958 0.0245693 1.46543 xyz
    dof rx ry rz
  end
  begin
    id 13
    name LeftArm
    direction 0.999943 0.00455037 -0.00961766
    length 11.3419
    axis -23.1648 0.685459 1.22814 xyz
    dof rx ry rz
  end
  begin
    id 14
    name LeftForeArm
    direction 0.999332 0.0131969 0.0340885
    length 8.70632
    axis -9.90633 0.618216 0.0826942 xyz
    dof rx ry rz
  end
  begin
    id 15
    name LeftHand
    direction 0.994373 -0.0366703 0.0993905
    length 5.32135
    axis 0.00675269 0.680415 0.445699 xyz
    dof rx ry rz
  end
  begin
    id 16
    name RightShoulderDummy
    direction -0.967298 0.252589 -0.0230903
    length 3.68488
    axis -0.000934958 0.0245693 1.46543 xyz
  end
  begin
    id 17
    name RightShoulder
    direction -0.975062 0.221602 0.0120823
    length 3.13809
    axis 0.216257 0.0246515 1.45863 xyz
    dof rx ry rz
  end
  begin
    id 18
    name RightArm
    direction -0.99886 -0.00851186 -0.0469687
    length 10.3947
    axis -23.196 0.23503 -0.532632 xyz
    dof rx ry rz
  end
  begin
    id 19
    name RightForeArm
    direction -0.99909 0.00114866 0.0426317
    length 8.68355
    axis -9.91764 -0.134943 0.610517 xyz
    dof rx ry rz
  end
  begin
    id 20
    name RightHand
    direction -0.992888 -0.0489538 0.10852
    length 5.28593
    axis -0.00275396 -0.197403 0.246414 xyz
    dof rx ry rz
  end
  begin
    id 21
    name LeftUpLegDummy
    direction 1 -2.30186e-007 -8.31532e-007
    length 4.04083
    axis 0 0 0 xyz
  end
  begin
    id 22
    name LeftUpLeg
    direction -0.000920097 -1 2.79241e-006
    length 17.4221
    axis -3.48782 0.00143434 -0.0532288 xyz
    dof rx ry rz
  end
  begin
    id 23
    name LeftLeg
    direction -0.000920097 -1 2.7912e-006
    length 17.1239
    axis 3.68162 -0.00806512 -0.0529896 xyz
    dof rx ry rz
  end
  begin
    id 24
    name LeftFoot
    direction -2.57845e-005 -3.987e-007 1
    length 6.72091
    axis 3.02372e-005 -0.00147829 -0.214229 xyz
    dof rx ry rz
  end
  begin
    id 25
    name LeftToes
    direction 0.00813577 -0.00488255 0.999955
    length 3.85048
    axis 3.89895e-005 -0.0014783 -0.214229 xyz
    dof rx ry rz
  end
:hierarchy
  begin
    root RightUpLegDummy SpineDummy LeftUpLegDummy
    RightUpLegDummy RightUpLeg
    RightUpLeg RightLeg
    RightLeg RightFoot
    RightFoot RightToes
    SpineDummy Spine
    Spine Spine1
    Spine1 HEadDummy LeftShoulder1Dummy RightShoulderDummy
    HEadDummy HEad
    LeftShoulder1Dummy LeftShoulder1
    LeftShoulder1 LeftArm
    LeftArm LeftForeArm
    LeftForeArm LeftHand
    RightShoulderDummy RightShoulder
    RightShoulder RightArm
    RightArm RightForeArm
    RightForeArm RightHand
    LeftUpLegDummy LeftUpLeg
    LeftUpLeg LeftLeg
    LeftLeg LeftFoot
    LeftFoot LeftToes
  end

:SAMPLES-PER-SECOND 30
:FULLY-SPECIFIED
:DEGREES
82
root  -41.1552 34.7828 12.2996 -166.626 63.5892 -178.393
RightUpLeg  -11.3828 -10.6518 0.630491
RightLeg  7.32298 -2.65257 -0.167314
RightFoot  2.7839 0.0146613 0.0336562
RightToes  -25.8203 -0.113325 -0.221596
Spine  -1.77735 0.00671387 0.420063
Spine1  -3.61323 0.119624 1.49829
HEad  -69.2134 0.16249 5.17899
LeftShoulder1  -1.94126e-019 -3.10601e-018 -2.51263e-017
LeftArm  -12.6779 22.7846 -81.9981
LeftForeArm  31.033 -15.3288 -2.50725
LeftHand  -0.413498 -1.22359 7.40832
RightShoulder  -4.96962e-017 0 -2.36833e-017
RightArm  -20.6802 -20.5067 75.4763
RightForeArm  56.8198 15.3177 1.07524
RightHand  -0.347954 -1.31616 -9.81393
LeftUpLeg  -8.00199 10.4469 2.77818
LeftLeg  3.26149 13.0942 -0.0956763
LeftFoot  5.9532 -0.0706812 1.52079
LeftToes  -27.5977 1.9075e-006 4.29692e-008
83
root  -40.961 34.7732 12.394 -165.447 64.4475 -177.773
RightUpLeg  -11.8566 -9.76335 1.10518
RightLeg  7.30517 -2.61684 -0.164232
RightFoot  2.47295 0.0135041 0.0493756
RightToes  -25.61 -0.113762 -0.221194
Spine  -1.84257 0.00313348 0.481376
Spine1  -3.74045 0.114202 1.62589
HEad  -68.7979 0.486881 4.87422
LeftShoulder1  -1.94126e-019 -3.10601e-018 -2.51263e-017
LeftArm  -12.3991 22.8394 -81.9747
LeftForeArm  30.8018 -15.7398 -2.5714
LeftHand  -0.412658 -1.33924 7.27567
RightShoulder  -4.96962e-017 0 -2.36833e-017
RightArm  -20.7459 -20.4685 75.5439
RightForeArm  56.7023 15.4403 1.06452
RightHand  -0.347502 -1.32048 -9.81089
LeftUpLeg  -8.53992 11.2295 3.13098
LeftLeg  3.86197 13.2343 0.0407143
LeftFoot  5.56761 -0.0624708 1.44625
LeftToes  -28.2612 1.9075e-006 4.29692e-008
84
root  -40.7055 34.7583 12.4698 -164.551 65.5287 -177.078
RightUpLeg  -11.8958 -9.1148 1.49852
RightLeg  7.30516 -2.1319 -0.133625
RightFoot  2.14857 0.0111023 0.0793523
RightToes  -25.8971 -0.114298 -0.221032
Spine  -1.81827 -0.00498708 0.541457
Spine1  -3.69057 0.0998247 1.74443
HEad  -68.2223 1.16307 4.79547
LeftShoulder1  -1.94126e-019 -3.10601e-018 -2.51263e-017
LeftArm  -12.4385 22.8377 -82.0362
LeftForeArm  30.8802 -16.0975 -2.63608
LeftHand  -0.410616 -1.20719 7.37459
RightShoulder  -4.96962e-017 0 -2.36833e-017
RightArm  -21.0643 -20.3924 75.7067
RightForeArm  57.2726 15.4839 1.04807
RightHand  -0.372206 -1.32012 -10.5187
LeftUpLeg  -8.83765 11.9869 3.56251
LeftLeg  5.05037 13.5926 0.320997
LeftFoot  4.85133 -0.0483962 1.31017
LeftToes  -28.3926 1.9075e-006 4.29692e-008
85
root  -40.4072 34.738 12.5476 -163.518 66.6922 -176.153
RightUpLeg  -11.7235 -8.36721 1.93518
RightLeg  7.17546 -1.63667 -0.0986315
RightFoot  1.90212 0.00882928 0.102531
RightToes  -26.3229 -0.114939 -0.221139
Spine  -1.75384 -0.0271322 0.638012
Spine1  -3.55739 0.0535031 1.94583
HEad  -67.7601 1.99374 4.73024
LeftShoulder1  -1.94126e-019 -3.10601e-018 -2.51263e-017
LeftArm  -12.4849 22.6412 -82.1955
LeftForeArm  31.0463 -16.2933 -2.68325
LeftHand  -0.411078 -1.23728 7.35165
RightShoulder  -4.96962e-017 0 -2.36833e-017
RightArm  -21.504 -20.365 75.8112
RightForeArm  55.8351 16.045 1.03736
RightHand  -0.346731 -1.31927 -9.78598
LeftUpLeg  -9.18849 12.2221 4.11033
LeftLeg  6.74666 14.5742 0.770982
LeftFoot  3.9321 -0.0343549 1.16234
LeftToes  -28.2967 1.9075e-006 4.29692e-008
86
root  -40.0633 34.7016 12.6335 -162.132 67.9158 -174.754
RightUpLeg  -11.4372 -7.29059 2.49308
RightLeg  7.16703 -1.37734 -0.0826326
RightFoot  1.49358 0.00649067 0.120256
RightToes  -25.9971 -0.115688 -0.221544
Spine  -1.67433 -0.0775369 0.81045
Spine1  -3.39279 -0.0493717 2.30197
HEad  -67.3115 3.0945 4.64232
LeftShoulder1  -1.94126e-019 -3.10601e-018 -2.51263e-017
LeftArm  -12.253 22.4292 -82.4473
LeftForeArm  31.2605 -16.569 -2.74807
LeftHand  -0.418788 -1.1766 7.55122
RightShoulder  -4.96962e-017 0 -2.36833e-017
RightArm  -21.285 -20.4066 75.7879
RightForeArm  54.8584 16.754 1.06267
RightHand  -0.336061 -1.30859 -9.45608
LeftUpLeg  -9.81752 12.3259 4.85789
LeftLeg  9.43947 15.728 1.56433
LeftFoot  2.69689 -0.0174755 0.903962
LeftToes  -28.1179 1.9075e-006 4.29692e-008
87
root  -39.6819 34.6343 12.7222 -160.011 68.9662 -172.481
RightUpLeg  -10.939 -6.23841 3.3313
RightLeg  7.12834 -1.14635 -0.0678165
RightFoot  1.00832 0.00374295 0.136002
RightToes  -25.8717 -0.116551 -0.222275
Spine  -1.60516 -0.203382 1.12296
Spine1  -3.24745 -0.302066 2.94459
HEad  -66.7593 4.3969 4.38747
LeftShoulder1  -1.94126e-019 -3.10601e-018 -2.51263e-017
LeftArm  -11.8077 22.4875 -82.7883
LeftForeArm  31.5259 -17.5615 -2.92136
LeftHand  -0.420024 -1.22536 7.52123
RightShoulder  -4.96962e-017 0 -2.36833e-017
RightArm  -20.6851 -20.5898 75.4701
RightForeArm  53.8703 17.8003 1.23978
RightHand  -0.321783 -1.20206 -8.82854
LeftUpLeg  -11.1031 12.0706 5.94648
LeftLeg  13.8698 16.9853 3.00329
LeftFoot  0.983444 -0.00246586 0.448908
LeftToes  -27.6399 1.9075e-006 4.29692e-008
88
root  -39.2682 34.5131 12.8046 -156.979 69.6805 -169.069
RightUpLeg  -10.2649 -5.62192 4.53228
RightLeg  7.25858 -0.655323 -0.039788
RightFoot  0.221142 0.000322041 0.152111
RightToes  -26.1963 -0.118625 -0.22468
Spine  -1.45556 -0.330962 1.59738
Spine1  -2.94284 -0.555293 3.89979
HEad  -66.2054 5.56156 4.05904
LeftShoulder1  -1.94126e-019 -3.10601e-018 -2.51263e-017
LeftArm  -10.7602 22.383 -83.281
LeftForeArm  31.1353 -19.3475 -3.22953
LeftHand  -0.413337 -0.890691 7.77
RightShoulder  -4.96962e-017 0 -2.36833e-017
RightArm  -20.3531 -21.3097 74.9247
RightForeArm  52.8612 20.6547 1.80742
RightHand  -0.293508 -1.40486 -8.42477
LeftUpLeg  -13.0822 11.7568 7.42991
LeftLeg  20.1945 18.043 5.24346
LeftFoot  -1.06846 -0.00353338 -0.217395
LeftToes  -26.9449 1.9075e-006 4.29692e-008
89
root  -38.8124 34.3692 12.8165 -155.088 70.3499 -166.43
RightUpLeg  -9.31634 -5.60494 5.24849
RightLeg  7.99073 0.356006 0.0279288
RightFoot  -0.998555 -0.003835 0.144509
RightToes  -27.5341 -0.127314 -0.234467
Spine  -1.14671 -0.415811 2.03009
Spine1  -2.32684 -0.727627 4.75629
HEad  -65.6997 6.51825 3.65805
LeftShoulder1  -1.94126e-019 -3.10601e-018 -2.51263e-017
LeftArm  -9.86399 21.9277 -83.8622
LeftForeArm  31.2284 -20.8152 -3.44179
LeftHand  -0.411924 -1.0807 7.53187
RightShoulder  -4.96962e-017 0 -2.36833e-017
RightArm  -20.6026 -22.1074 74.2299
RightForeArm  50.535 23.8011 2.50589
RightHand  -0.271719 -1.42266 -7.81726
LeftUpLeg  -15.0596 11.0567 8.49893
LeftLeg  27.633 19.5643 8.45683
LeftFoot  -1.45469 -0.00737572 -0.419418
LeftToes  -29.013 1.9075e-006 4.29692e-008
